# xmcd
#
# Track frame offsets: 
#        150
#        20190
#        36110
#        55586
#        79601
#        103111
#        122736
#        147446
#        165812
#        187093
#        213643
#
# Disc length: 3078 seconds
#
# Revision: 0
# Processed by: cddbd v1.5.1PL0 Copyright (c) Steve Scherf et al.
# Submitted via: ExactAudioCopy v0.95a5
#
DISCID=960c040b
DTITLE=Dakota - Vakariòas 5atâ
DYEAR=2003
DGENRE=Country
TTITLE0=Nakstauriòu karnevâls
TTITLE1=Vakariòas 5atâ
TTITLE2=Dþokonda
TTITLE3=Papîra lidmaðîna
TTITLE4=Piektdienas vakars
TTITLE5=Pirmdienas rîts
TTITLE6=Sievietei
TTITLE7=Dzîvo brîvs
TTITLE8=Ko tu teiksi rît?
TTITLE9=Nezinu gan
TTITLE10=Mans ceïð
EXTD=
EXTT0=
EXTT1=
EXTT2=
EXTT3=
EXTT4=
EXTT5=
EXTT6=
EXTT7=
EXTT8=
EXTT9=
EXTT10=
PLAYORDER=
